<svg xmlns="http://www.w3.org/2000/svg" version="1.1" xmlns:xlink="http://www.w3.org/1999/xlink" xmlns:svgjs="http://svgjs.dev/svgjs" width="1000" height="148" viewBox="0 0 1000 148"><g transform="matrix(1,0,0,1,-0.6060606060606233,0.029337980149023224)"><svg viewBox="0 0 396 59" data-background-color="#ffffff" preserveAspectRatio="xMidYMid meet" height="148" width="1000" xmlns="http://www.w3.org/2000/svg" xmlns:xlink="http://www.w3.org/1999/xlink"><g id="tight-bounds" transform="matrix(1,0,0,1,0.2400000000000091,-0.011695546140487068)"><svg viewBox="0 0 395.52 59.02338867773555" height="59.02338867773555" width="395.52"><g><svg viewBox="0 0 395.52 59.02338867773555" height="59.02338867773555" width="395.52"><g><svg viewBox="0 0 395.52 59.02338867773555" height="59.02338867773555" width="395.52"><g><svg viewBox="0 0 395.52 59.02338867773555" height="59.02338867773555" width="395.52"><g><svg viewBox="0 0 395.52 59.02338867773555" height="59.02338867773555" width="395.52"><g transform="matrix(1,0,0,1,0,0)"><svg width="395.52" viewBox="0.699999988079071 -36.70000076293945 249.9300079345703 37.29999923706055" height="59.02338867773555" data-palette-color="#0ca073"><path d="M23.65-9.15L23.65-9.15Q23.65-5 19.68-2.2 15.7 0.6 10.45 0.6L10.45 0.6Q6.35 0.6 3.53-1.15 0.7-2.9 0.7-4.5L0.7-4.5Q1.5-6.45 3.75-8.7 6-10.95 7.9-11.05L7.9-11.05Q9.15-10.5 10.23-8.33 11.3-6.15 11.95-3.3L11.95-3.3Q14.65-3.4 14.65-6.35L14.65-6.35Q14.65-8.3 13.18-11.13 11.7-13.95 9.95-16.4 8.2-18.85 6.73-21.85 5.25-24.85 5.25-27.1L5.25-27.1Q5.25-30.8 8.65-33.15 12.05-35.5 16.23-35.5 20.4-35.5 22.73-33.7 25.05-31.9 25.05-29.55L25.05-29.55Q25.05-27.6 24.25-26.43 23.45-25.25 22.98-24.63 22.5-24 21.7-23.3L21.7-23.3Q20.2-22 19.4-21.4L19.4-21.4 18.65-20.85Q21.6-17.2 23.1-12.35L23.1-12.35Q23.65-10.6 23.65-9.15ZM21.05-29.2L21.05-29.2Q21.05-31.55 18.05-31.55L18.05-31.55Q16.3-31.55 15.23-30.8 14.15-30.05 14.15-28.93 14.15-27.8 15.08-26.2 16-24.6 16.55-23.95L16.55-23.95Q17.75-24.55 19.4-26.15 21.05-27.75 21.05-29.2ZM51.3-20.25Q50.25-17 49.5-12.53 48.75-8.05 48.75-6.28 48.75-4.5 49.3-4.5L49.3-4.5 51.8-5.2 52.7-2.7Q51.1-1.45 48.62-0.43 46.15 0.6 44.25 0.6L44.25 0.6Q41 0.6 40.15-2.2L40.15-2.2Q36.2 0.6 33.17 0.6 30.15 0.6 28.5-1.6 26.85-3.8 26.85-7.9L26.85-7.9Q26.85-13.55 29.75-17.85 32.65-22.15 37.4-22.15L37.4-22.15Q40-22.15 42.7-20.7L42.7-20.7Q43.1-21.6 43.35-22L43.35-22Q46.95-22 51.3-20.25L51.3-20.25ZM36.25-8.53Q36.25-6 36.6-5.35 36.95-4.7 37.9-4.7 38.85-4.7 39.75-5.45L39.75-5.45Q39.95-11.25 41.65-17.6L41.65-17.6Q40.9-18.05 39.92-18.05 38.95-18.05 38.17-16.95 37.4-15.85 37-14.2L37-14.2Q36.25-11.05 36.25-8.53ZM54.4 0.3L54.4 0.3 54 0.3Q53.85-0.4 53.85-1.88 53.85-3.35 55.07-9.53 56.3-15.7 56.3-16.53 56.3-17.35 55.85-18.23 55.4-19.1 54.95-19.55L54.95-19.55 54.5-20 54.6-20.75Q57.6-21.7 64.55-21.7L64.55-21.7Q65.2-20.45 65.35-18.75L65.35-18.75Q68.4-22.15 70.75-22.15L70.75-22.15Q73.8-22.15 74.1-17L74.1-17Q74-16.9 73.85-16.68 73.7-16.45 73.15-15.9 72.6-15.35 72-14.9L72-14.9Q70.3-13.75 68.4-13.55L68.4-13.55Q68.35-13.55 67.72-14.65 67.1-15.75 66.67-15.75 66.25-15.75 65.1-14.85L65.1-14.85Q64.95-13.95 64.52-11.8 64.1-9.65 63.85-8.25L63.85-8.25Q63.1-4.55 63.1-2.05L63.1-2.05 63.15-0.55Q60.95 0.3 54.4 0.3ZM90.39 0.6L90.39 0.6Q87.29 0.6 86.39-1.8L86.39-1.8Q82.59 0.6 79.62 0.6 76.64 0.6 74.82-1.43 72.99-3.45 72.99-8L72.99-8Q72.99-13.95 76.02-18.05 79.04-22.15 83.84-22.15L83.84-22.15Q86.19-22.15 88.54-21.05L88.54-21.05Q90.39-29.5 90.39-33.2L90.39-33.2Q90.39-34.3 90.24-35.4L90.24-35.4Q94.89-36.7 99.19-36.7L99.19-36.7Q99.59-36.05 99.59-33.63 99.59-31.2 97.32-20.6 95.04-10 95.04-6.4L95.04-6.4Q95.04-4.5 95.69-4.5L95.69-4.5 97.84-5.2 98.74-2.65Q94.34 0.6 90.39 0.6ZM83.84-4.45L83.84-4.45Q84.74-4.45 85.84-5.05L85.84-5.05 85.84-5.1Q86.04-9.15 87.79-17.85L87.79-17.85Q86.79-18.15 86.34-18.15L86.34-18.15Q85.29-18.15 84.49-17.1 83.69-16.05 83.24-14.4L83.24-14.4Q82.39-11 82.39-7.73 82.39-4.45 83.84-4.45ZM124.54-20.25Q123.49-17 122.74-12.53 121.99-8.05 121.99-6.28 121.99-4.5 122.54-4.5L122.54-4.5 125.04-5.2 125.94-2.7Q124.34-1.45 121.87-0.43 119.39 0.6 117.49 0.6L117.49 0.6Q114.24 0.6 113.39-2.2L113.39-2.2Q109.44 0.6 106.42 0.6 103.39 0.6 101.74-1.6 100.09-3.8 100.09-7.9L100.09-7.9Q100.09-13.55 102.99-17.85 105.89-22.15 110.64-22.15L110.64-22.15Q113.24-22.15 115.94-20.7L115.94-20.7Q116.34-21.6 116.59-22L116.59-22Q120.19-22 124.54-20.25L124.54-20.25ZM109.49-8.53Q109.49-6 109.84-5.35 110.19-4.7 111.14-4.7 112.09-4.7 112.99-5.45L112.99-5.45Q113.19-11.25 114.89-17.6L114.89-17.6Q114.14-18.05 113.17-18.05 112.19-18.05 111.42-16.95 110.64-15.85 110.24-14.2L110.24-14.2Q109.49-11.05 109.49-8.53ZM127.64 0.3L127.64 0.3 127.24 0.3Q127.09-0.4 127.09-1.88 127.09-3.35 128.31-9.53 129.54-15.7 129.54-16.53 129.54-17.35 129.09-18.23 128.64-19.1 128.19-19.55L128.19-19.55 127.74-20 127.84-20.75Q130.84-21.7 137.79-21.7L137.79-21.7Q138.44-20.45 138.59-18.75L138.59-18.75Q141.64-22.15 143.99-22.15L143.99-22.15Q147.04-22.15 147.34-17L147.34-17Q147.24-16.9 147.09-16.68 146.94-16.45 146.39-15.9 145.84-15.35 145.24-14.9L145.24-14.9Q143.54-13.75 141.64-13.55L141.64-13.55Q141.59-13.55 140.96-14.65 140.34-15.75 139.91-15.75 139.49-15.75 138.34-14.85L138.34-14.85Q138.19-13.95 137.76-11.8 137.34-9.65 137.09-8.25L137.09-8.25Q136.34-4.55 136.34-2.05L136.34-2.05 136.39-0.55Q134.19 0.3 127.64 0.3ZM161.14-34.6L161.14-34.6Q161.14-30.95 158.69-20.4L158.69-20.4Q161.59-22.15 164.04-22.15 166.49-22.15 168.34-20.1 170.19-18.05 170.19-12.63 170.19-7.2 167.21-3.3 164.24 0.6 159.89 0.6L159.89 0.6Q157.29 0.6 154.74-0.8L154.74-0.8Q149.74 0.4 146.29 0.4L146.29 0.4Q146.04 0.25 146.04-1.3L146.04-1.3Q146.04-4.95 148.96-16.95 151.89-28.95 151.89-33.25L151.89-33.25Q151.89-34.35 151.79-35.35L151.79-35.35Q156.64-36.7 160.84-36.7L160.84-36.7Q161.14-36.2 161.14-34.6ZM159.59-17.15L159.59-17.15Q158.89-17.15 157.79-16.6L157.79-16.6Q155.64-7.35 155.29-4.15L155.29-4.15Q156.19-3.7 156.94-3.7L156.94-3.7Q158.64-3.7 159.71-7.35 160.79-11 160.79-14.08 160.79-17.15 159.59-17.15ZM196.68-20.25Q195.63-17 194.88-12.53 194.13-8.05 194.13-6.28 194.13-4.5 194.68-4.5L194.68-4.5 197.18-5.2 198.08-2.7Q196.48-1.45 194.01-0.43 191.53 0.6 189.63 0.6L189.63 0.6Q186.38 0.6 185.53-2.2L185.53-2.2Q181.58 0.6 178.56 0.6 175.53 0.6 173.88-1.6 172.23-3.8 172.23-7.9L172.23-7.9Q172.23-13.55 175.13-17.85 178.03-22.15 182.78-22.15L182.78-22.15Q185.38-22.15 188.08-20.7L188.08-20.7Q188.48-21.6 188.73-22L188.73-22Q192.33-22 196.68-20.25L196.68-20.25ZM181.63-8.53Q181.63-6 181.98-5.35 182.33-4.7 183.28-4.7 184.23-4.7 185.13-5.45L185.13-5.45Q185.33-11.25 187.03-17.6L187.03-17.6Q186.28-18.05 185.31-18.05 184.33-18.05 183.56-16.95 182.78-15.85 182.38-14.2L182.38-14.2Q181.63-11.05 181.63-8.53ZM213.68-34.6L213.68-34.6Q213.68-30.95 211.23-20.4L211.23-20.4Q214.13-22.15 216.58-22.15 219.03-22.15 220.88-20.1 222.73-18.05 222.73-12.63 222.73-7.2 219.76-3.3 216.78 0.6 212.43 0.6L212.43 0.6Q209.83 0.6 207.28-0.8L207.28-0.8Q202.28 0.4 198.83 0.4L198.83 0.4Q198.58 0.25 198.58-1.3L198.58-1.3Q198.58-4.95 201.51-16.95 204.43-28.95 204.43-33.25L204.43-33.25Q204.43-34.35 204.33-35.35L204.33-35.35Q209.18-36.7 213.38-36.7L213.38-36.7Q213.68-36.2 213.68-34.6ZM212.13-17.15L212.13-17.15Q211.43-17.15 210.33-16.6L210.33-16.6Q208.18-7.35 207.83-4.15L207.83-4.15Q208.73-3.7 209.48-3.7L209.48-3.7Q211.18-3.7 212.26-7.35 213.33-11 213.33-14.08 213.33-17.15 212.13-17.15ZM249.23-20.25Q248.18-17 247.43-12.53 246.68-8.05 246.68-6.28 246.68-4.5 247.23-4.5L247.23-4.5 249.73-5.2 250.63-2.7Q249.03-1.45 246.55-0.43 244.08 0.6 242.18 0.6L242.18 0.6Q238.93 0.6 238.08-2.2L238.08-2.2Q234.13 0.6 231.1 0.6 228.08 0.6 226.43-1.6 224.78-3.8 224.78-7.9L224.78-7.9Q224.78-13.55 227.68-17.85 230.58-22.15 235.33-22.15L235.33-22.15Q237.93-22.15 240.63-20.7L240.63-20.7Q241.03-21.6 241.28-22L241.28-22Q244.88-22 249.23-20.25L249.23-20.25ZM234.18-8.53Q234.18-6 234.53-5.35 234.88-4.7 235.83-4.7 236.78-4.7 237.68-5.45L237.68-5.45Q237.88-11.25 239.58-17.6L239.58-17.6Q238.83-18.05 237.85-18.05 236.88-18.05 236.1-16.95 235.33-15.85 234.93-14.2L234.93-14.2Q234.18-11.05 234.18-8.53Z" opacity="1" transform="matrix(1,0,0,1,0,0)" fill="#0ca073" class="undefined-text-0" data-fill-palette-color="primary" id="text-0"></path></svg></g></svg></g></svg></g></svg></g><g></g></svg></g><defs></defs></svg><rect width="395.52" height="59.02338867773555" fill="none" stroke="none" visibility="hidden"></rect></g></svg></g></svg>